<?xml version="1.0" standalone="no"?>
<!DOCTYPE svg PUBLIC "-//W3C//DTD SVG 20010904//EN"
 "http://www.w3.org/TR/2001/REC-SVG-20010904/DTD/svg10.dtd">
<svg version="1.0" xmlns="http://www.w3.org/2000/svg"
 width="1280.000000pt" height="1272.000000pt" viewBox="0 0 1280.000000 1272.000000"
 preserveAspectRatio="xMidYMid meet">
<metadata>
Created by potrace 1.15, written by Peter Selinger 2001-2017
</metadata>
<g transform="translate(0.000000,1272.000000) scale(0.100000,-0.100000)"
fill="#000000" stroke="none">
<path d="M8118 11442 c-460 -702 -842 -1277 -850 -1276 -7 1 -198 133 -423
294 -226 162 -970 694 -1655 1184 -685 489 -1257 898 -1272 909 l-27 20 -143
-95 c-453 -303 -838 -657 -1155 -1063 -383 -492 -706 -1135 -912 -1820 -51
-169 -112 -407 -106 -413 3 -3 880 -137 1950 -297 1070 -161 1947 -294 1950
-296 2 -3 -68 -101 -156 -219 -660 -883 -1165 -1856 -1525 -2938 -332 -997
-556 -2129 -706 -3569 -27 -260 -5 -253 -172 -58 -813 949 -1134 1790 -929
2439 37 117 93 224 195 369 161 229 213 370 212 577 -1 151 -27 252 -105 400
-222 424 -801 860 -1649 1243 -164 75 -539 227 -558 227 -9 0 -42 -75 -42 -95
0 -6 28 -21 63 -34 103 -40 492 -241 657 -340 305 -183 511 -340 715 -545 241
-243 368 -458 405 -689 38 -236 -30 -450 -228 -716 -135 -180 -204 -322 -247
-506 -101 -436 29 -1003 375 -1645 258 -479 599 -951 1078 -1498 l135 -153
-32 -367 c-17 -202 -34 -391 -37 -419 l-6 -53 2846 0 2846 0 0 2370 0 2370
2096 0 2095 0 -3 44 c-3 42 -14 55 -588 663 -2256 2389 -2700 2859 -2702 2864
-2 3 440 441 982 974 542 532 1118 1100 1281 1262 l297 294 -306 347 c-343
390 -625 677 -817 831 -462 372 -955 582 -1560 665 -122 17 -328 36 -390 36
l-40 0 -837 -1278z"/>
</g>
</svg>
